<svg width="70" height="70" viewBox="0 0 70 70" fill="none" xmlns="http://www.w3.org/2000/svg">
<path d="M28.4375 12.0313H15.3125C14.4423 12.0312 13.6077 12.377 12.9923 12.9923C12.377 13.6077 12.0313 14.4423 12.0313 15.3125V28.4375C12.0312 29.3077 12.377 30.1423 12.9923 30.7577C13.6077 31.373 14.4423 31.7188 15.3125 31.7188H28.4375C29.3077 31.7188 30.1423 31.373 30.7577 30.7577C31.373 30.1423 31.7188 29.3077 31.7188 28.4375V15.3125C31.7188 14.4423 31.373 13.6077 30.7577 12.9923C30.1423 12.377 29.3077 12.0313 28.4375 12.0313ZM29.5312 28.4375C29.5312 28.7276 29.416 29.0058 29.2109 29.2109C29.0058 29.416 28.7276 29.5312 28.4375 29.5312H15.3125C15.0224 29.5312 14.7442 29.416 14.5391 29.2109C14.334 29.0058 14.2188 28.7276 14.2188 28.4375V15.3125C14.2188 15.0224 14.334 14.7442 14.5391 14.5391C14.7442 14.334 15.0224 14.2188 15.3125 14.2188H28.4375C28.7276 14.2188 29.0058 14.334 29.2109 14.5391C29.416 14.7442 29.5312 15.0224 29.5312 15.3125V28.4375ZM54.6875 12.0313H41.5625C40.6923 12.0312 39.8577 12.377 39.2423 12.9923C38.627 13.6077 38.2812 14.4423 38.2812 15.3125V28.4375C38.2812 29.3077 38.627 30.1423 39.2423 30.7577C39.8577 31.373 40.6923 31.7188 41.5625 31.7188H54.6875C55.5577 31.7188 56.3923 31.373 57.0077 30.7577C57.623 30.1423 57.9688 29.3077 57.9688 28.4375V15.3125C57.9688 14.4423 57.623 13.6077 57.0077 12.9923C56.3923 12.377 55.5577 12.0313 54.6875 12.0313ZM55.7812 28.4375C55.7812 28.7276 55.666 29.0058 55.4609 29.2109C55.2558 29.416 54.9776 29.5312 54.6875 29.5312H41.5625C41.2724 29.5312 40.9942 29.416 40.7891 29.2109C40.584 29.0058 40.4688 28.7276 40.4688 28.4375V15.3125C40.4688 15.0224 40.584 14.7442 40.7891 14.5391C40.9942 14.334 41.2724 14.2188 41.5625 14.2188H54.6875C54.9776 14.2188 55.2558 14.334 55.4609 14.5391C55.666 14.7442 55.7812 15.0224 55.7812 15.3125V28.4375ZM28.4375 38.2812H15.3125C14.4423 38.2812 13.6077 38.627 12.9923 39.2423C12.377 39.8577 12.0313 40.6923 12.0313 41.5625V54.6875C12.0312 55.5577 12.377 56.3923 12.9923 57.0077C13.6077 57.623 14.4423 57.9688 15.3125 57.9688H28.4375C29.3077 57.9688 30.1423 57.623 30.7577 57.0077C31.373 56.3923 31.7188 55.5577 31.7188 54.6875V41.5625C31.7188 40.6923 31.373 39.8577 30.7577 39.2423C30.1423 38.627 29.3077 38.2812 28.4375 38.2812ZM29.5312 54.6875C29.5312 54.9776 29.416 55.2558 29.2109 55.4609C29.0058 55.666 28.7276 55.7812 28.4375 55.7812H15.3125C15.0224 55.7812 14.7442 55.666 14.5391 55.4609C14.334 55.2558 14.2188 54.9776 14.2188 54.6875V41.5625C14.2188 41.2724 14.334 40.9942 14.5391 40.7891C14.7442 40.584 15.0224 40.4688 15.3125 40.4688H28.4375C28.7276 40.4688 29.0058 40.584 29.2109 40.7891C29.416 40.9942 29.5312 41.2724 29.5312 41.5625V54.6875ZM54.6875 38.2812H41.5625C40.6923 38.2812 39.8577 38.627 39.2423 39.2423C38.627 39.8577 38.2812 40.6923 38.2812 41.5625V54.6875C38.2812 55.5577 38.627 56.3923 39.2423 57.0077C39.8577 57.623 40.6923 57.9688 41.5625 57.9688H54.6875C55.5577 57.9688 56.3923 57.623 57.0077 57.0077C57.623 56.3923 57.9688 55.5577 57.9688 54.6875V41.5625C57.9688 40.6923 57.623 39.8577 57.0077 39.2423C56.3923 38.627 55.5577 38.2812 54.6875 38.2812ZM55.7812 54.6875C55.7812 54.9776 55.666 55.2558 55.4609 55.4609C55.2558 55.666 54.9776 55.7812 54.6875 55.7812H41.5625C41.2724 55.7812 40.9942 55.666 40.7891 55.4609C40.584 55.2558 40.4688 54.9776 40.4688 54.6875V41.5625C40.4688 41.2724 40.584 40.9942 40.7891 40.7891C40.9942 40.584 41.2724 40.4688 41.5625 40.4688H54.6875C54.9776 40.4688 55.2558 40.584 55.4609 40.7891C55.666 40.9942 55.7812 41.2724 55.7812 41.5625V54.6875Z" fill="#228AED"/>
</svg>
