<svg width="20" height="20" viewBox="0 0 20 20" fill="none" xmlns="http://www.w3.org/2000/svg">
<path d="M19.5301 18.47C19.6038 18.5386 19.6629 18.6214 19.7039 18.7134C19.7449 18.8054 19.7669 18.9047 19.7687 19.0054C19.7705 19.1061 19.7519 19.2062 19.7142 19.2996C19.6765 19.393 19.6203 19.4778 19.5491 19.549C19.4779 19.6202 19.3931 19.6764 19.2997 19.7141C19.2063 19.7518 19.1063 19.7703 19.0056 19.7686C18.9049 19.7668 18.8056 19.7447 18.7136 19.7038C18.6216 19.6628 18.5388 19.6037 18.4701 19.53L10.0001 11.0612L1.53009 19.53C1.38792 19.6625 1.19987 19.7346 1.00557 19.7311C0.811267 19.7277 0.625882 19.649 0.488469 19.5116C0.351056 19.3742 0.272344 19.1888 0.268916 18.9945C0.265487 18.8002 0.33761 18.6121 0.47009 18.47L8.93884 9.99997L0.47009 1.52997C0.33761 1.38779 0.265487 1.19975 0.268916 1.00545C0.272344 0.811145 0.351056 0.62576 0.488469 0.488347C0.625882 0.350934 0.811267 0.272222 1.00557 0.268794C1.19987 0.265365 1.38792 0.337488 1.53009 0.469968L10.0001 8.93872L18.4701 0.469968C18.6123 0.337488 18.8003 0.265365 18.9946 0.268794C19.1889 0.272222 19.3743 0.350934 19.5117 0.488347C19.6491 0.62576 19.7278 0.811145 19.7313 1.00545C19.7347 1.19975 19.6626 1.38779 19.5301 1.52997L11.0613 9.99997L19.5301 18.47Z" fill="#228AED"/>
</svg>
