<svg width="20" height="20" viewBox="0 0 20 20" fill="none" xmlns="http://www.w3.org/2000/svg">
<path d="M16.2697 9.66878C16.3132 9.71231 16.3478 9.76401 16.3714 9.82091C16.395 9.87782 16.4071 9.93882 16.4071 10.0004C16.4071 10.062 16.395 10.123 16.3714 10.1799C16.3478 10.2368 16.3132 10.2885 16.2697 10.3321L9.85871 16.7383C9.06731 17.5294 7.99406 17.9737 6.87507 17.9735C5.75608 17.9733 4.68301 17.5285 3.89192 16.7371C3.10083 15.9457 2.65652 14.8725 2.65674 13.7535C2.65696 12.6345 3.10169 11.5614 3.89309 10.7703L11.6486 2.90159C11.9241 2.62576 12.2513 2.40691 12.6115 2.25754C12.9716 2.10816 13.3577 2.03119 13.7476 2.03101C14.1375 2.03082 14.5236 2.10744 14.8839 2.25648C15.2442 2.40552 15.5716 2.62406 15.8474 2.89964C16.1232 3.17521 16.3421 3.50241 16.4914 3.86256C16.6408 4.2227 16.7178 4.60875 16.718 4.99865C16.7181 5.38854 16.6415 5.77466 16.4925 6.13494C16.3435 6.49523 16.1249 6.82264 15.8493 7.09846L8.09309 14.9641C7.771 15.2868 7.3339 15.4684 6.87795 15.4688C6.422 15.4692 5.98455 15.2885 5.66184 14.9664C5.33912 14.6443 5.15758 14.2072 5.15714 13.7513C5.1567 13.2953 5.3374 12.8579 5.65949 12.5352L12.1657 5.92034C12.253 5.83166 12.3719 5.78126 12.4963 5.78023C12.6206 5.77921 12.7403 5.82764 12.829 5.91487C12.9177 6.0021 12.9681 6.12099 12.9691 6.24538C12.9702 6.36977 12.9217 6.48947 12.8345 6.57815L6.32824 13.1961C6.2555 13.2685 6.19773 13.3545 6.15823 13.4492C6.11873 13.5439 6.09826 13.6455 6.09801 13.7481C6.09775 13.8507 6.11771 13.9524 6.15675 14.0473C6.19578 14.1422 6.25313 14.2285 6.32551 14.3012C6.39789 14.3739 6.48389 14.4317 6.5786 14.4712C6.67331 14.5107 6.77487 14.5312 6.87748 14.5314C6.9801 14.5317 7.08176 14.5117 7.17666 14.4727C7.27156 14.4337 7.35785 14.3763 7.43059 14.3039L15.1837 6.43753C15.565 6.0569 15.7794 5.54041 15.7798 5.00168C15.7803 4.46296 15.5667 3.94612 15.1861 3.56487C14.8054 3.18362 14.2889 2.96919 13.7502 2.96875C13.2115 2.96831 12.6946 3.1819 12.3134 3.56253L4.55715 11.4282C3.94135 12.0432 3.59511 12.8777 3.5946 13.7481C3.59409 14.6185 3.93934 15.4534 4.55442 16.0692C5.16949 16.685 6.004 17.0312 6.87436 17.0317C7.74472 17.0322 8.57963 16.687 9.19543 16.0719L15.6064 9.66565C15.6501 9.62227 15.702 9.58794 15.759 9.56462C15.816 9.5413 15.8771 9.52944 15.9387 9.52973C16.0003 9.53002 16.0612 9.54245 16.118 9.56631C16.1748 9.59017 16.2263 9.62499 16.2697 9.66878Z" fill="#16224A"/>
</svg>
