<svg width="1082" height="695" viewBox="0 0 1082 695" fill="none" xmlns="http://www.w3.org/2000/svg">
<path d="M0.757883 0.528564C232.552 36.185 553.982 441.453 524.32 582.378C504.869 674.758 276.982 672.686 214.722 689.345C129.817 712.039 290.581 627.096 323.324 528.892C362.227 412.199 303.176 105.423 490.508 159.362C653.994 206.461 689.398 359.006 806.589 355.473C912.585 352.231 995.155 224.192 1048.11 117.223M0.741365 9.88189C222.81 49.6388 532.035 442.119 507.316 577.146C491.107 665.604 275.279 662.655 217.671 677.633C137.808 698.361 291.716 616.721 324.183 522.508C363.086 409.542 309.4 115.96 490.248 167.97C651.579 214.242 684.144 370.336 802.393 370.563C908.579 370.369 994.409 245.101 1049.7 140.417M0.723166 19.1831C213.066 63.0405 510.087 442.701 490.327 571.861C477.36 656.397 273.575 652.571 220.62 665.863C145.781 684.567 292.848 606.299 325.04 516.056C363.943 406.818 315.639 126.46 489.987 176.525C649.163 221.987 678.89 382.037 798.206 385.602C904.572 388.843 993.659 265.975 1051.3 163.559M0.723166 28.5508C203.34 76.5251 488.155 443.301 473.34 566.639C463.614 647.206 271.873 642.555 223.57 654.162C153.723 670.725 293.999 595.877 325.899 509.622C364.915 404.095 321.879 136.963 489.744 185.067C646.747 229.734 673.604 393.576 793.994 400.626C900.539 406.931 992.898 286.866 1052.89 186.687M0.707943 37.8861C193.696 89.9605 466.209 443.819 456.353 561.386C449.869 637.968 270.189 632.492 226.537 642.328C161.7 656.915 295.167 585.47 326.759 503.187C365.84 401.388 328.121 147.481 489.485 193.624C644.332 237.481 668.34 404.937 789.828 415.667C896.517 425.083 992.189 307.741 1054.5 209.831M0.689744 47.2218C183.985 103.413 444.259 444.305 439.347 556.137C436.106 628.682 268.501 622.424 229.485 630.579C169.705 643.057 296.365 575.053 327.617 496.753C366.778 398.665 334.36 158.016 489.24 202.198C641.9 245.261 663.054 416.38 785.626 430.724C892.494 443.236 991.486 328.616 1056.1 232.992M0.689744 56.5752C174.276 116.867 422.296 444.55 422.36 550.905C422.36 619.348 266.75 612.329 232.435 618.814C177.68 629.136 297.564 564.647 328.476 490.336C367.735 395.944 340.584 168.504 488.948 210.773C639.453 253.01 657.721 427.791 781.413 445.781C888.398 461.341 990.662 349.558 1057.67 256.154M0.675937 65.9077C164.553 130.3 400.302 444.79 405.375 545.652C408.617 609.962 265.164 602.214 235.404 607.06C185.657 615.162 298.815 554.24 329.418 483.883C368.807 393.121 346.827 179.312 488.805 219.311C637.053 261.079 652.52 439.15 777.333 460.803C884.523 479.409 990.033 370.43 1059.38 279.28M0.65916 75.244C154.843 143.753 378.24 444.937 388.371 540.398C394.758 600.512 263.559 592.087 238.353 595.295C193.664 600.998 300.062 543.834 330.212 477.481C369.714 390.48 352.905 189.88 488.48 227.886C634.558 268.875 647.186 450.496 773.067 475.861C880.405 497.482 989.219 391.339 1060.9 302.441M0.65916 84.5823C145.133 157.192 356.114 444.956 371.383 535.15C380.85 591.02 261.97 581.908 241.303 583.546C201.688 586.675 301.278 533.432 331.071 471.05C370.751 387.76 359.21 200.385 488.302 236.479C632.206 276.69 641.985 461.844 768.949 490.936C876.452 515.556 988.553 412.249 1062.59 325.62M0.644709 93.9186C135.425 170.645 333.861 444.876 354.398 529.902C366.847 581.474 260.513 571.697 244.174 571.797C209.746 571.993 302.528 523.044 331.851 464.616C371.726 385.022 365.356 210.936 487.898 245.037C629.616 284.487 636.541 473.141 764.61 505.978C872.271 533.533 987.649 433.141 1064.01 348.765M0.627932 103.269C125.715 184.079 311.459 444.695 337.41 524.663C352.728 571.877 258.697 564.097 247.221 560.027C218.239 563.267 303.954 512.653 332.79 458.196C372.892 382.297 371.693 221.453 487.719 253.609C627.28 292.264 631.35 484.42 760.492 521.032C868.333 551.582 986.983 454.047 1065.7 371.924M0.627932 112.602C115.99 197.529 288.831 444.45 320.406 519.41C338.464 562.263 257.044 554.224 250.171 548.273C226.279 549.764 305.396 502.278 333.649 451.76C374.027 379.572 377.917 231.97 487.46 262.132C624.848 300.009 626.08 495.649 756.311 536.038C864.326 569.541 986.237 474.904 1067.3 395.033M0.611414 121.94C106.28 210.968 265.959 444.226 303.419 514.161C324.037 552.67 255.374 544.357 253.169 536.514C234.351 536.233 306.871 491.908 334.557 445.344C375.258 376.851 384.206 242.475 487.265 270.741C622.486 307.824 620.879 506.933 752.172 551.132C860.372 587.547 985.587 495.846 1068.94 418.229M0.593088 131.276C96.5686 224.421 242.81 444.081 286.429 508.911C309.446 543.125 253.719 534.484 256.069 524.762C242.339 522.703 308.295 481.568 335.365 438.862C376.456 374.032 390.396 252.929 486.955 279.251C620.017 315.539 615.577 518.1 747.928 566.121C856.318 605.475 984.763 516.69 1070.49 441.326M0.593088 140.612C86.8592 237.857 219.42 444.162 269.425 503.66C294.696 533.691 252.049 524.616 259.035 513.012C250.38 509.187 309.819 471.245 336.224 432.492C377.769 371.52 396.637 263.465 486.696 287.873C617.602 323.335 610.339 529.363 743.742 581.226C852.349 623.465 984.017 537.629 1072.1 464.535M0.57657 149.945C77.1497 251.307 195.672 444.565 252.438 498.406C279.848 524.419 250.395 514.743 261.985 501.242C258.419 495.651 311.391 460.967 337.083 426.056C379.146 368.908 402.877 273.948 486.452 296.396C615.186 331.031 605.122 540.483 739.545 596.236C848.358 641.356 983.267 558.489 1073.69 487.644M0.561215 159.298C67.4249 264.744 171.846 445.409 235.451 493.172C264.968 515.328 248.727 504.874 264.936 489.493C266.46 482.135 313.029 450.725 337.878 419.623C380.574 366.381 409.07 284.436 486.129 305.003C612.707 338.796 599.852 551.714 735.3 611.325C844.325 659.315 982.474 579.429 1075.22 510.838M0.561215 168.633C57.7155 278.196 147.986 446.689 218.464 487.921C250.104 506.43 249.408 497.484 267.886 477.743C275.585 469.509 314.715 440.466 338.818 413.205C382.227 363.966 415.391 294.89 485.951 313.577C610.376 346.511 594.714 562.866 731.167 626.383C840.434 677.242 981.797 600.322 1076.89 533.998M0.545986 178.016C48.007 291.679 124.256 448.454 201.542 482.716C235.436 497.757 246.54 486.493 270.934 466.023C283.173 455.747 316.531 430.48 339.76 406.817C384.027 361.744 421.714 305.407 485.774 322.181C608.055 354.224 589.608 574.059 727.065 641.467C836.576 695.18 981.131 621.272 1078.56 557.189M0.528564 187.303C38.2964 305.082 100.751 450.447 184.472 477.416C220.733 489.102 244.139 475.796 273.802 454.223C290.789 441.857 318.216 420.415 340.536 400.35C385.793 359.653 427.921 315.714 485.432 330.658C605.64 361.614 584.454 584.92 722.783 656.429C832.622 712.848 980.302 642.069 1080.09 580.254M0.528564 196.639C28.587 318.519 77.5393 452.717 167.485 472.166C283.657 497.368 373.231 310.674 485.188 339.264C603.224 369.426 579.2 596.268 718.602 671.518C828.615 730.934 979.572 663.025 1081.69 603.445" stroke="#21488B" stroke-miterlimit="10"/>
</svg>
