<svg width="70" height="70" viewBox="0 0 70 70" fill="none" xmlns="http://www.w3.org/2000/svg">
<path d="M53.5938 30.625C53.5938 30.9151 53.4785 31.1933 53.2734 31.3984C53.0683 31.6035 52.7901 31.7188 52.5 31.7188H41.5625C41.2724 31.7188 40.9942 31.6035 40.7891 31.3984C40.584 31.1933 40.4688 30.9151 40.4688 30.625C40.4688 30.3349 40.584 30.0567 40.7891 29.8516C40.9942 29.6465 41.2724 29.5312 41.5625 29.5312H52.5C52.7901 29.5312 53.0683 29.6465 53.2734 29.8516C53.4785 30.0567 53.5938 30.3349 53.5938 30.625ZM52.5 38.2812H41.5625C41.2724 38.2812 40.9942 38.3965 40.7891 38.6016C40.584 38.8067 40.4688 39.0849 40.4688 39.375C40.4688 39.6651 40.584 39.9433 40.7891 40.1484C40.9942 40.3535 41.2724 40.4688 41.5625 40.4688H52.5C52.7901 40.4688 53.0683 40.3535 53.2734 40.1484C53.4785 39.9433 53.5938 39.6651 53.5938 39.375C53.5938 39.0849 53.4785 38.8067 53.2734 38.6016C53.0683 38.3965 52.7901 38.2812 52.5 38.2812ZM62.3438 15.3125V54.6875C62.3438 55.5577 61.998 56.3923 61.3827 57.0077C60.7673 57.623 59.9327 57.9688 59.0625 57.9688H10.9375C10.0673 57.9688 9.23266 57.623 8.61731 57.0077C8.00195 56.3923 7.65625 55.5577 7.65625 54.6875V15.3125C7.65625 14.4423 8.00195 13.6077 8.61731 12.9923C9.23266 12.377 10.0673 12.0313 10.9375 12.0313H59.0625C59.9327 12.0312 60.7673 12.377 61.3827 12.9923C61.998 13.6077 62.3438 14.4423 62.3438 15.3125ZM60.1562 15.3125C60.1562 15.0224 60.041 14.7442 59.8359 14.5391C59.6308 14.334 59.3526 14.2188 59.0625 14.2188H10.9375C10.6474 14.2188 10.3692 14.334 10.1641 14.5391C9.95898 14.7442 9.84375 15.0224 9.84375 15.3125V54.6875C9.84375 54.9776 9.95898 55.2558 10.1641 55.4609C10.3692 55.666 10.6474 55.7812 10.9375 55.7812H59.0625C59.3526 55.7812 59.6308 55.666 59.8359 55.4609C60.041 55.2558 60.1562 54.9776 60.1562 54.6875V15.3125ZM36.0582 45.6641C36.1004 45.805 36.1137 45.953 36.0974 46.0993C36.081 46.2455 36.0354 46.3869 35.9631 46.515C35.8908 46.6432 35.7934 46.7555 35.6767 46.8451C35.56 46.9347 35.4265 46.9999 35.284 47.0367C35.1416 47.0735 34.9932 47.0812 34.8477 47.0593C34.7022 47.0374 34.5626 46.9864 34.4373 46.9093C34.312 46.8322 34.2035 46.7306 34.1184 46.6106C34.0332 46.4906 33.9732 46.3547 33.9418 46.2109C33.1023 42.9297 29.8047 40.4688 26.25 40.4688C22.6953 40.4688 19.4141 42.9297 18.5582 46.2109C18.4976 46.4456 18.3608 46.6535 18.1693 46.8019C17.9778 46.9504 17.7423 47.0311 17.5 47.0312C17.4077 47.031 17.3158 47.019 17.2266 46.9957C16.946 46.923 16.7058 46.7419 16.5587 46.4922C16.4115 46.2426 16.3695 45.9447 16.4418 45.6641C16.8318 44.2375 17.5359 42.9162 18.5024 41.7968C19.469 40.6774 20.6736 39.7883 22.0281 39.1945C20.6552 38.287 19.6112 36.9612 19.051 35.4137C18.4907 33.8662 18.4441 32.1794 18.9179 30.6033C19.3918 29.0271 20.3608 27.6457 21.6815 26.6636C23.0022 25.6816 24.6042 25.1513 26.25 25.1513C27.8958 25.1513 29.4978 25.6816 30.8185 26.6636C32.1392 27.6457 33.1082 29.0271 33.5821 30.6033C34.0559 32.1794 34.0093 33.8662 33.449 35.4137C32.8888 36.9612 31.8448 38.287 30.4719 39.1945C31.8273 39.787 33.0326 40.6756 33.9994 41.7952C34.9661 42.9148 35.6696 44.2368 36.0582 45.6641ZM26.25 38.2812C27.3316 38.2812 28.3889 37.9605 29.2883 37.3596C30.1876 36.7587 30.8885 35.9046 31.3025 34.9053C31.7164 33.906 31.8247 32.8064 31.6137 31.7456C31.4027 30.6848 30.8818 29.7103 30.117 28.9455C29.3522 28.1807 28.3777 27.6598 27.3169 27.4488C26.2561 27.2378 25.1565 27.3461 24.1572 27.76C23.1579 28.174 22.3038 28.8749 21.7029 29.7742C21.102 30.6736 20.7812 31.7309 20.7812 32.8125C20.7812 34.2629 21.3574 35.6539 22.383 36.6795C23.4086 37.7051 24.7996 38.2812 26.25 38.2812Z" fill="#228AED"/>
</svg>
