<svg width="44" height="42" viewBox="0 0 44 42" fill="none" xmlns="http://www.w3.org/2000/svg">
<path d="M43.2744 40.996C43.1275 41.2504 42.9163 41.4616 42.6618 41.6084C42.4074 41.7553 42.1188 41.8326 41.8251 41.8325H1.67136C1.37782 41.8322 1.08952 41.7547 0.835422 41.6077C0.581322 41.4607 0.37036 41.2495 0.22372 40.9952C0.0770806 40.7409 -7.53055e-05 40.4525 5.51524e-08 40.159C7.54158e-05 39.8655 0.0773793 39.5771 0.22415 39.3229C3.40926 33.8164 8.31764 29.8679 14.0458 27.9962C11.2124 26.3094 9.01101 23.7392 7.77972 20.6803C6.54842 17.6213 6.3553 14.2427 7.23002 11.0634C8.10473 7.884 9.99891 5.07969 12.6217 3.08106C15.2444 1.08243 18.4507 0 21.7482 0C25.0457 0 28.252 1.08243 30.8748 3.08106C33.4975 5.07969 35.3917 7.884 36.2664 11.0634C37.1412 14.2427 36.948 17.6213 35.7167 20.6803C34.4854 23.7392 32.284 26.3094 29.4506 27.9962C35.1788 29.8679 40.0872 33.8164 43.2723 39.3229C43.4195 39.577 43.4971 39.8655 43.4975 40.1591C43.4979 40.4528 43.4209 40.7414 43.2744 40.996Z" fill="#6A7D94"/>
</svg>
