<svg width="29" height="28" viewBox="0 0 29 28" fill="none" xmlns="http://www.w3.org/2000/svg">
<path d="M25.6405 3.02949C25.535 2.93834 25.4066 2.87775 25.2691 2.85423C25.1317 2.83071 24.9904 2.84517 24.8606 2.89605L2.69469 11.5706C2.42508 11.6761 2.19697 11.8662 2.04463 12.1124C1.89228 12.3586 1.82392 12.6475 1.84981 12.9359C1.8757 13.2242 1.99444 13.4964 2.1882 13.7115C2.38197 13.9266 2.64029 14.0731 2.92437 14.1289L8.84375 15.2915V21.8748C8.84387 22.18 8.93519 22.4782 9.106 22.7311C9.2768 22.9841 9.51929 23.1802 9.80234 23.2943C10.0854 23.4085 10.3961 23.4354 10.6946 23.3717C10.9931 23.308 11.2657 23.1566 11.4775 22.9368L14.3912 19.9148L18.9391 23.9015C19.2167 24.1472 19.5746 24.2829 19.9453 24.2832C20.1072 24.2829 20.2681 24.2575 20.4222 24.2078C20.6748 24.1278 20.9021 23.983 21.0814 23.7879C21.2606 23.5927 21.3855 23.3539 21.4437 23.0954L25.8866 3.78089C25.9178 3.64511 25.9114 3.50337 25.868 3.37096C25.8247 3.23855 25.746 3.12049 25.6405 3.02949ZM3.16172 12.8371C3.15753 12.8259 3.15753 12.8134 3.16172 12.8021C3.16665 12.7983 3.1722 12.7954 3.17812 12.7934L20.6464 5.95527L9.34797 14.049L3.17812 12.8415L3.16172 12.8371ZM10.5325 22.0246C10.5024 22.0559 10.4636 22.0775 10.4211 22.0867C10.3786 22.0958 10.3344 22.0921 10.2941 22.0761C10.2537 22.06 10.219 22.0323 10.1945 21.9964C10.17 21.9606 10.1566 21.9182 10.1562 21.8748V16.1993L13.4036 19.0431L10.5325 22.0246ZM20.1652 22.799C20.1571 22.836 20.1392 22.8701 20.1134 22.8978C20.0877 22.9255 20.0549 22.9458 20.0186 22.9565C19.9816 22.9695 19.9417 22.9723 19.9032 22.9646C19.8647 22.9569 19.829 22.939 19.7998 22.9128L10.5544 14.8026L24.2656 4.97636L20.1652 22.799Z" fill="#228AED"/>
</svg>
