<svg width="70" height="70" viewBox="0 0 70 70" fill="none" xmlns="http://www.w3.org/2000/svg">
<path d="M68.827 32.4078L64.9988 22.8375C64.7545 22.2303 64.3341 21.7101 63.7918 21.3437C63.2495 20.9772 62.61 20.7814 61.9555 20.7812H51.4062V17.5C51.4062 17.2099 51.291 16.9317 51.0859 16.7266C50.8808 16.5215 50.6026 16.4062 50.3125 16.4062H8.75C7.87976 16.4062 7.04516 16.752 6.42981 17.3673C5.81445 17.9827 5.46875 18.8173 5.46875 19.6875V50.3125C5.46875 51.1827 5.81445 52.0173 6.42981 52.6327C7.04516 53.248 7.87976 53.5938 8.75 53.5938H14.298C14.5622 55.4148 15.4734 57.0799 16.8648 58.284C18.2563 59.4882 20.0349 60.1509 21.875 60.1509C23.7151 60.1509 25.4937 59.4882 26.8852 58.284C28.2766 57.0799 29.1878 55.4148 29.452 53.5938H44.923C45.1872 55.4148 46.0984 57.0799 47.4898 58.284C48.8813 59.4882 50.6599 60.1509 52.5 60.1509C54.3401 60.1509 56.1187 59.4882 57.5102 58.284C58.9016 57.0799 59.8128 55.4148 60.077 53.5938H65.625C66.4952 53.5938 67.3298 53.248 67.9452 52.6327C68.5605 52.0173 68.9062 51.1827 68.9062 50.3125V32.8125C68.9057 32.6738 68.8788 32.5365 68.827 32.4078ZM51.4062 22.9688H61.9555C62.1742 22.9683 62.3881 23.0335 62.5694 23.1558C62.7507 23.2782 62.8912 23.4521 62.9727 23.6551L66.1965 31.7188H51.4062V22.9688ZM7.65625 19.6875C7.65625 19.3974 7.77148 19.1192 7.9766 18.9141C8.18172 18.709 8.45992 18.5938 8.75 18.5938H49.2188V38.2812H7.65625V19.6875ZM21.875 57.9688C20.7934 57.9688 19.7361 57.648 18.8367 57.0471C17.9374 56.4462 17.2365 55.5921 16.8225 54.5928C16.4086 53.5935 16.3003 52.4939 16.5113 51.4331C16.7223 50.3723 17.2432 49.3978 18.008 48.633C18.7728 47.8682 19.7473 47.3473 20.8081 47.1363C21.8689 46.9253 22.9685 47.0336 23.9678 47.4475C24.9671 47.8615 25.8212 48.5624 26.4221 49.4617C27.023 50.3611 27.3438 51.4184 27.3438 52.5C27.3438 53.9504 26.7676 55.3414 25.742 56.367C24.7164 57.3926 23.3254 57.9688 21.875 57.9688ZM44.923 51.4062H29.452C29.1878 49.5852 28.2766 47.9201 26.8852 46.716C25.4937 45.5118 23.7151 44.8491 21.875 44.8491C20.0349 44.8491 18.2563 45.5118 16.8648 46.716C15.4734 47.9201 14.5622 49.5852 14.298 51.4062H8.75C8.45992 51.4062 8.18172 51.291 7.9766 51.0859C7.77148 50.8808 7.65625 50.6026 7.65625 50.3125V40.4688H49.2188V45.5848C48.079 46.1268 47.0907 46.9417 46.3414 47.9572C45.592 48.9727 45.1049 50.1574 44.923 51.4062ZM52.5 57.9688C51.4184 57.9688 50.3611 57.648 49.4617 57.0471C48.5624 56.4462 47.8615 55.5921 47.4475 54.5928C47.0336 53.5935 46.9253 52.4939 47.1363 51.4331C47.3473 50.3723 47.8682 49.3978 48.633 48.633C49.3978 47.8682 50.3723 47.3473 51.4331 47.1363C52.4939 46.9253 53.5935 47.0336 54.5928 47.4475C55.5921 47.8615 56.4462 48.5624 57.0471 49.4617C57.648 50.3611 57.9688 51.4184 57.9688 52.5C57.9688 53.9504 57.3926 55.3414 56.367 56.367C55.3414 57.3926 53.9504 57.9688 52.5 57.9688ZM66.7188 50.3125C66.7188 50.6026 66.6035 50.8808 66.3984 51.0859C66.1933 51.291 65.9151 51.4062 65.625 51.4062H60.077C59.7867 49.3968 58.7102 47.5849 57.0841 46.3691C55.4581 45.1533 53.4158 44.6332 51.4062 44.923V33.9062H66.7188V50.3125Z" fill="#228AED"/>
</svg>
