<svg width="70" height="70" viewBox="0 0 70 70" fill="none" xmlns="http://www.w3.org/2000/svg">
<path d="M65.625 51.4062H62.3438V14.946L65.8547 14.1941C65.9975 14.1663 66.1333 14.1104 66.2542 14.0295C66.3751 13.9487 66.4787 13.8445 66.5589 13.7231C66.639 13.6018 66.6942 13.4656 66.7211 13.3227C66.748 13.1797 66.7461 13.0328 66.7156 12.8906C66.685 12.7484 66.6264 12.6137 66.5432 12.4944C66.4599 12.3751 66.3537 12.2737 66.2308 12.1959C66.1078 12.1182 65.9706 12.0657 65.8272 12.0417C65.6837 12.0176 65.5369 12.0224 65.3953 12.0558L4.14531 25.1808C3.88148 25.2377 3.64801 25.3902 3.48982 25.6089C3.33163 25.8276 3.25988 26.097 3.28839 26.3654C3.31689 26.6338 3.44363 26.8822 3.64422 27.0628C3.84481 27.2434 4.10509 27.3434 4.375 27.3437C4.45222 27.3436 4.52921 27.3353 4.60469 27.3191L7.65625 26.6655V51.4062H4.375C4.08492 51.4062 3.80672 51.5214 3.6016 51.7265C3.39648 51.9316 3.28125 52.2098 3.28125 52.4999C3.28125 52.79 3.39648 53.0682 3.6016 53.2733C3.80672 53.4784 4.08492 53.5937 4.375 53.5937H65.625C65.9151 53.5937 66.1933 53.4784 66.3984 53.2733C66.6035 53.0682 66.7188 52.79 66.7188 52.4999C66.7188 52.2098 66.6035 51.9316 66.3984 51.7265C66.1933 51.5214 65.9151 51.4062 65.625 51.4062ZM9.84375 26.198L60.1562 15.4163V51.4062H51.4062V34.9999C51.4062 34.7098 51.291 34.4316 51.0859 34.2265C50.8808 34.0214 50.6026 33.9062 50.3125 33.9062H19.6875C19.3974 33.9062 19.1192 34.0214 18.9141 34.2265C18.709 34.4316 18.5938 34.7098 18.5938 34.9999V51.4062H9.84375V26.198ZM49.2188 42.6562H20.7812V36.0937H49.2188V42.6562ZM20.7812 44.8437H49.2188V51.4062H20.7812V44.8437Z" fill="#228AED"/>
</svg>
