<svg width="29" height="28" viewBox="0 0 29 28" fill="none" xmlns="http://www.w3.org/2000/svg">
<path d="M21.1681 16.0377L17.6681 14.2877C17.5647 14.2362 17.4496 14.213 17.3344 14.2203C17.2192 14.2276 17.1079 14.2652 17.0119 14.3292L15.2969 15.4722C14.4287 15.0277 13.7223 14.3213 13.2778 13.4531L14.4219 11.7392C14.4859 11.6432 14.5235 11.5319 14.5308 11.4167C14.5381 11.3015 14.5148 11.1863 14.4634 11.083L12.7134 7.58297C12.659 7.47347 12.5751 7.38134 12.4711 7.31699C12.3672 7.25264 12.2473 7.21861 12.125 7.21875C11.0227 7.21875 9.96553 7.65664 9.18608 8.43609C8.40663 9.21554 7.96874 10.2727 7.96874 11.375C7.97164 13.8688 8.96358 16.2596 10.727 18.023C12.4904 19.7864 14.8812 20.7784 17.375 20.7812C18.4773 20.7812 19.5345 20.3434 20.3139 19.5639C21.0934 18.7845 21.5312 17.7273 21.5312 16.625C21.5313 16.503 21.4973 16.3835 21.4332 16.2797C21.369 16.176 21.2772 16.0921 21.1681 16.0377ZM17.375 19.4688C15.2292 19.4661 13.172 18.6126 11.6547 17.0953C10.1374 15.578 9.28385 13.5208 9.28124 11.375C9.2813 10.6887 9.52958 10.0255 9.98027 9.50789C10.431 8.99026 11.0536 8.6531 11.7334 8.55859L13.1181 11.328L11.9817 13.032C11.922 13.1219 11.8854 13.2251 11.8751 13.3325C11.8648 13.4399 11.8811 13.5482 11.9226 13.6478C12.5261 15.0825 13.6674 16.2239 15.1022 16.8273C15.2018 16.8689 15.3101 16.8852 15.4175 16.8749C15.5249 16.8646 15.6281 16.828 15.718 16.7683L17.422 15.6319L20.1914 17.0166C20.0969 17.6964 19.7597 18.319 19.2421 18.7697C18.7245 19.2204 18.0613 19.4687 17.375 19.4688ZM14.75 2.84375C12.816 2.84334 10.9151 3.3457 9.23387 4.30154C7.5526 5.25738 6.14869 6.63386 5.15987 8.29594C4.17104 9.95802 3.63128 11.8486 3.59353 13.7822C3.55577 15.7158 4.02133 17.6261 4.94452 19.3255L3.67359 23.1394C3.58361 23.4092 3.57055 23.6987 3.63588 23.9755C3.7012 24.2523 3.84233 24.5055 4.04343 24.7066C4.24454 24.9077 4.49768 25.0488 4.77449 25.1141C5.05129 25.1794 5.34082 25.1664 5.61062 25.0764L9.42452 23.8055C10.9175 24.6157 12.5757 25.0742 14.2728 25.1462C15.9699 25.2182 17.661 24.9017 19.2172 24.2209C20.7734 23.5401 22.1536 22.5129 23.2526 21.2177C24.3515 19.9224 25.1402 18.3934 25.5584 16.7471C25.9767 15.1007 26.0135 13.3806 25.666 11.7179C25.3186 10.0553 24.596 8.49385 23.5535 7.15279C22.511 5.81174 21.176 4.72646 19.6503 3.97969C18.1246 3.23293 16.4486 2.84441 14.75 2.84375ZM14.75 23.8438C13.0196 23.8442 11.3197 23.3884 9.82156 22.5225C9.72166 22.4651 9.60862 22.4346 9.49343 22.4339C9.42282 22.4343 9.3527 22.4458 9.28562 22.4678L5.19609 23.8306C5.15754 23.8435 5.11618 23.8453 5.07664 23.836C5.0371 23.8267 5.00093 23.8065 4.9722 23.7778C4.94347 23.7491 4.92331 23.7129 4.91398 23.6734C4.90465 23.6338 4.90651 23.5924 4.91937 23.5539L6.28218 19.4688C6.31167 19.3805 6.32204 19.2869 6.31261 19.1944C6.30318 19.1018 6.27417 19.0122 6.22749 18.9317C5.14168 17.056 4.70523 14.8744 4.98586 12.7254C5.26649 10.5764 6.2485 8.57999 7.77956 7.04603C9.31061 5.51206 11.3051 4.52626 13.4536 4.24156C15.6021 3.95685 17.7845 4.38916 19.6623 5.47141C21.54 6.55366 23.0081 8.22536 23.8388 10.2271C24.6694 12.2289 24.8163 14.4489 24.2564 16.5426C23.6966 18.6364 22.4615 20.4869 20.7426 21.807C19.0238 23.1271 16.9173 23.843 14.75 23.8438Z" fill="#228AED"/>
</svg>
